<svg width="104" height="104" viewBox="0 0 104 104" fill="none" xmlns="http://www.w3.org/2000/svg">
<path d="M19.9052 51.9898C14.6608 47.2328 6.77375 46.5936 0.798608 50.5205C-0.26617 51.2203 -0.266233 52.7667 0.798599 53.4664C6.77466 57.3932 14.6628 56.7512 19.9052 51.9898Z" fill="#0E131B"/>
<path d="M23.8655 55.9063C28.6766 61.0917 29.323 68.8901 25.3515 74.798C24.6437 75.8508 23.0797 75.8509 22.372 74.798C18.4005 68.8892 19.0499 61.0898 23.8655 55.9063Z" fill="#0E131B"/>
<path d="M23.8455 48.0938C19.0344 42.9084 18.388 35.11 22.3595 29.2021C23.0672 28.1492 24.6313 28.1492 25.3389 29.202C29.3104 35.1109 28.6611 42.9103 23.8455 48.0938Z" fill="#0E131B"/>
<path d="M27.8061 52.0099C33.0505 56.7669 40.9376 57.4061 46.9127 53.4792C47.9775 52.7794 47.9775 51.233 46.9127 50.5333C40.9367 46.6064 33.0485 47.2485 27.8061 52.0099Z" fill="#0E131B"/>
<path d="M76.1936 51.9897C70.9492 47.2327 63.0622 46.5935 57.0871 50.5204C56.0223 51.2202 56.0222 52.7666 57.0871 53.4663C63.0631 57.3932 70.9512 56.7511 76.1936 51.9897Z" fill="#0E131B"/>
<path d="M80.1539 55.9062C84.965 61.0916 85.6115 68.89 81.6399 74.7979C80.9322 75.8508 79.3682 75.8508 78.6605 74.798C74.689 68.8891 75.3384 61.0897 80.1539 55.9062Z" fill="#0E131B"/>
<path d="M80.134 48.0937C75.3229 42.9083 74.6764 35.1099 78.648 29.202C79.3557 28.1492 80.9197 28.1491 81.6274 29.202C85.5989 35.1108 84.9495 42.9102 80.134 48.0937Z" fill="#0E131B"/>
<path d="M84.0946 52.0098C89.339 56.7668 97.226 57.406 103.201 53.4791C104.266 52.7793 104.266 51.2329 103.201 50.5332C97.2251 46.6064 89.337 47.2484 84.0946 52.0098Z" fill="#0E131B"/>
<path d="M52.0099 19.9052C56.7669 14.6608 57.4061 6.77375 53.4792 0.798607C52.7795 -0.266171 51.233 -0.266234 50.5333 0.798598C46.6065 6.77465 47.2485 14.6628 52.0099 19.9052Z" fill="#0E131B"/>
<path d="M48.0934 23.8655C42.908 28.6766 35.1096 29.323 29.2017 25.3515C28.1489 24.6437 28.1488 23.0797 29.2017 22.372C35.1105 18.4005 42.9099 19.0499 48.0934 23.8655Z" fill="#0E131B"/>
<path d="M55.9059 23.8455C61.0913 19.0344 68.8897 18.388 74.7977 22.3595C75.8505 23.0672 75.8505 24.6313 74.7977 25.3389C68.8888 29.3104 61.0894 28.6611 55.9059 23.8455Z" fill="#0E131B"/>
<path d="M51.9898 27.8061C47.2328 33.0505 46.5936 40.9376 50.5205 46.9127C51.2203 47.9775 52.7667 47.9775 53.4664 46.9127C57.3933 40.9367 56.7512 33.0485 51.9898 27.8061Z" fill="#0E131B"/>
<path d="M52.0099 76.194C56.7669 70.9496 57.4061 63.0625 53.4792 57.0874C52.7795 56.0226 51.233 56.0226 50.5333 57.0874C46.6065 63.0634 47.2485 70.9516 52.0099 76.194Z" fill="#0E131B"/>
<path d="M48.0934 80.1543C42.908 84.9653 35.1096 85.6118 29.2017 81.6403C28.1489 80.9325 28.1488 79.3685 29.2017 78.6608C35.1105 74.6893 42.9099 75.3387 48.0934 80.1543Z" fill="#0E131B"/>
<path d="M55.9059 80.1343C61.0913 75.3232 68.8897 74.6767 74.7977 78.6483C75.8505 79.356 75.8505 80.9201 74.7977 81.6277C68.8888 85.5992 61.0894 84.9499 55.9059 80.1343Z" fill="#0E131B"/>
<path d="M51.9898 84.0949C47.2328 89.3393 46.5936 97.2264 50.5205 103.201C51.2203 104.266 52.7667 104.266 53.4664 103.202C57.3933 97.2254 56.7512 89.3373 51.9898 84.0949Z" fill="#0E131B"/>
</svg>
